<?xml version="1.0" standalone="no"?>
<!DOCTYPE svg PUBLIC "-//W3C//DTD SVG 20010904//EN"
 "http://www.w3.org/TR/2001/REC-SVG-20010904/DTD/svg10.dtd">
<svg version="1.0" xmlns="http://www.w3.org/2000/svg"
 width="1024.000000pt" height="1024.000000pt" viewBox="0 0 1024.000000 1024.000000"
 preserveAspectRatio="xMidYMid meet">

<g transform="translate(0.000000,1024.000000) scale(0.100000,-0.100000)"
fill="#000000" stroke="none">
<path d="M4674 7327 c-12 -7 -210 -181 -440 -387 -461 -413 -679 -609 -1101
-987 -155 -139 -291 -265 -302 -279 -15 -19 -21 -41 -21 -77 0 -44 4 -53 39
-88 33 -33 45 -39 80 -39 51 0 72 10 131 64 l45 41 3 -822 2 -823 125 0 125 0
0 933 0 934 123 109 c282 252 886 790 1061 948 171 153 191 168 209 157 10 -7
393 -346 849 -754 456 -408 849 -753 873 -766 35 -18 52 -22 81 -16 43 8 99
59 110 98 10 42 -4 95 -34 126 -15 16 -229 209 -477 428 -247 220 -650 579
-895 797 -245 219 -455 402 -468 407 -32 13 -93 11 -118 -4z"/>
<path d="M4310 6010 l0 -190 190 0 190 0 0 190 0 190 -190 0 -190 0 0 -190z"/>
<path d="M4790 6010 l0 -190 190 0 190 0 0 190 0 190 -190 0 -190 0 0 -190z"/>
<path d="M4310 5530 l0 -190 190 0 190 0 0 190 0 190 -190 0 -190 0 0 -190z"/>
<path d="M4790 5530 l0 -190 190 0 190 0 0 190 0 190 -190 0 -190 0 0 -190z"/>
<path d="M4952 4900 c-224 -59 -362 -244 -362 -485 0 -141 46 -253 144 -351
100 -100 216 -146 365 -147 158 0 273 45 377 148 239 236 166 660 -139 804
-117 55 -252 66 -385 31z m293 -201 c139 -71 196 -282 120 -443 -52 -110 -148
-162 -284 -154 -163 10 -258 112 -269 289 -9 156 60 279 184 325 63 23 189 15
249 -17z"/>
<path d="M6121 4904 c-231 -62 -384 -278 -368 -519 19 -276 225 -465 507 -467
238 -2 425 125 492 335 29 89 28 239 -1 326 -58 168 -199 295 -369 330 -72 15
-196 13 -261 -5z m241 -184 c173 -49 256 -324 148 -494 -70 -110 -219 -156
-355 -109 -152 51 -224 250 -159 438 22 62 94 136 155 158 51 18 158 21 211 7z"/>
<path d="M3690 4415 l0 -485 100 0 100 0 0 165 0 165 65 0 65 0 110 -165 110
-165 121 0 120 0 -120 177 -119 178 52 28 c112 61 160 141 160 267 -1 118 -52
209 -151 267 -76 44 -137 53 -385 53 l-228 0 0 -485z m468 291 c69 -36 94
-135 52 -204 -33 -53 -86 -72 -212 -72 l-108 0 0 151 0 152 118 -5 c83 -4 127
-10 150 -22z"/>
<path d="M6950 4415 l0 -485 110 0 110 0 0 185 0 185 190 0 190 0 0 85 0 85
-190 0 -190 0 0 125 0 125 220 0 220 0 0 90 0 90 -330 0 -330 0 0 -485z"/>
<path d="M5786 3620 c-67 -34 -76 -47 -76 -112 l0 -58 51 35 c64 44 110 57
150 43 36 -12 49 -35 49 -85 0 -54 -39 -111 -148 -216 l-92 -88 0 -59 0 -60
195 0 195 0 0 60 0 60 -119 0 -118 0 86 88 c97 97 123 142 129 222 5 76 -26
135 -87 167 -58 30 -158 31 -215 3z"/>
<path d="M5372 3348 c-29 -6 -57 -23 -87 -52 l-44 -42 -21 28 c-63 85 -222 93
-307 15 l-23 -20 0 36 0 37 -80 0 -80 0 0 -295 0 -295 79 0 80 0 3 200 3 200
26 26 c33 33 94 42 137 20 44 -23 52 -62 52 -268 l0 -178 80 0 80 0 0 195 0
195 28 31 c21 24 38 32 74 36 42 5 50 3 78 -25 l30 -30 0 -201 0 -201 81 0 81
0 -4 228 c-3 192 -6 232 -20 259 -25 44 -86 92 -128 99 -19 3 -44 7 -55 8 -11
2 -39 -1 -63 -6z"/>
</g>
</svg>
